<svg width="1440" height="365" viewBox="0 0 1440 365" fill="none" xmlns="http://www.w3.org/2000/svg">
<g clip-path="url(#clip0)">
<g filter="url(#filter0_d)">
<path d="M0 -552.706C0 -552.706 81.5 -719 369 -719C732.5 -719 708.756 -577.597 1022 -577.597C1251 -577.597 1434 -719 1434 -719V123.08C1434 123.08 1396 283 1022 283C761.286 283 658 123.08 369 123.08C215.952 123.08 0 216.663 0 216.663V-552.706Z" fill="#316019"/>
</g>
<g filter="url(#filter1_d)">
<path d="M-2 -535.987C-2 -535.987 76.5 -667.5 291 -667.5C654.5 -667.5 604 -433 1048.5 -667.5C1251.04 -774.353 1432 -608 1432 -608V89.89C1432 89.89 1218.2 237.182 1048.5 258C788.956 289.839 663 27.9999 374 27.9999C220.952 27.9999 -2 176.562 -2 176.562V-535.987Z" fill="#2B8E29"/>
</g>
</g>
<defs>
<filter id="filter0_d" x="-64" y="-759" width="1562" height="1130" filterUnits="userSpaceOnUse" color-interpolation-filters="sRGB">
<feFlood flood-opacity="0" result="BackgroundImageFix"/>
<feColorMatrix in="SourceAlpha" type="matrix" values="0 0 0 0 0 0 0 0 0 0 0 0 0 0 0 0 0 0 127 0"/>
<feOffset dy="24"/>
<feGaussianBlur stdDeviation="32"/>
<feColorMatrix type="matrix" values="0 0 0 0 0 0 0 0 0 0 0 0 0 0 0 0 0 0 0.2 0"/>
<feBlend mode="normal" in2="BackgroundImageFix" result="effect1_dropShadow"/>
<feBlend mode="normal" in="SourceGraphic" in2="effect1_dropShadow" result="shape"/>
</filter>
<filter id="filter1_d" x="-66" y="-743.305" width="1562" height="1091.99" filterUnits="userSpaceOnUse" color-interpolation-filters="sRGB">
<feFlood flood-opacity="0" result="BackgroundImageFix"/>
<feColorMatrix in="SourceAlpha" type="matrix" values="0 0 0 0 0 0 0 0 0 0 0 0 0 0 0 0 0 0 127 0"/>
<feOffset dy="24"/>
<feGaussianBlur stdDeviation="32"/>
<feColorMatrix type="matrix" values="0 0 0 0 0 0 0 0 0 0 0 0 0 0 0 0 0 0 0.2 0"/>
<feBlend mode="normal" in2="BackgroundImageFix" result="effect1_dropShadow"/>
<feBlend mode="normal" in="SourceGraphic" in2="effect1_dropShadow" result="shape"/>
</filter>
<clipPath id="clip0">
<rect width="1440" height="365" fill="white"/>
</clipPath>
</defs>
</svg>
