<svg width="1440" height="365" viewBox="0 0 1440 365" fill="none" xmlns="http://www.w3.org/2000/svg">
<g clip-path="url(#clip0)">
<g filter="url(#filter0_d)">
<path d="M0 319.294C0 319.294 81.5 153 369 153C732.5 153 708.756 294.403 1022 294.403C1251 294.403 1434 153 1434 153V995.08C1434 995.08 1396 1155 1022 1155C761.286 1155 658 995.08 369 995.08C215.952 995.08 0 1088.66 0 1088.66V319.294Z" fill="#316019"/>
</g>
<g filter="url(#filter1_d)">
<path d="M-2 336.013C-2 336.013 76.5 204.5 291 204.5C654.5 204.5 604 439 1048.5 204.5C1251.04 97.647 1432 264 1432 264V961.89C1432 961.89 1218.2 1109.18 1048.5 1130C788.956 1161.84 663 900 374 900C220.952 900 -2 1048.56 -2 1048.56V336.013Z" fill="#2B8E29"/>
</g>
</g>
<defs>
<filter id="filter0_d" x="-64" y="113" width="1562" height="1130" filterUnits="userSpaceOnUse" color-interpolation-filters="sRGB">
<feFlood flood-opacity="0" result="BackgroundImageFix"/>
<feColorMatrix in="SourceAlpha" type="matrix" values="0 0 0 0 0 0 0 0 0 0 0 0 0 0 0 0 0 0 127 0"/>
<feOffset dy="24"/>
<feGaussianBlur stdDeviation="32"/>
<feColorMatrix type="matrix" values="0 0 0 0 0 0 0 0 0 0 0 0 0 0 0 0 0 0 0.2 0"/>
<feBlend mode="normal" in2="BackgroundImageFix" result="effect1_dropShadow"/>
<feBlend mode="normal" in="SourceGraphic" in2="effect1_dropShadow" result="shape"/>
</filter>
<filter id="filter1_d" x="-66" y="128.695" width="1562" height="1091.99" filterUnits="userSpaceOnUse" color-interpolation-filters="sRGB">
<feFlood flood-opacity="0" result="BackgroundImageFix"/>
<feColorMatrix in="SourceAlpha" type="matrix" values="0 0 0 0 0 0 0 0 0 0 0 0 0 0 0 0 0 0 127 0"/>
<feOffset dy="24"/>
<feGaussianBlur stdDeviation="32"/>
<feColorMatrix type="matrix" values="0 0 0 0 0 0 0 0 0 0 0 0 0 0 0 0 0 0 0.2 0"/>
<feBlend mode="normal" in2="BackgroundImageFix" result="effect1_dropShadow"/>
<feBlend mode="normal" in="SourceGraphic" in2="effect1_dropShadow" result="shape"/>
</filter>
<clipPath id="clip0">
<rect width="1440" height="365" fill="white"/>
</clipPath>
</defs>
</svg>
